<?xml version="1.0" encoding="utf-8"?>
<!-- Generator: Adobe Illustrator 27.9.0, SVG Export Plug-In . SVG Version: 6.00 Build 0)  -->
<svg version="1.1" id="Ebene_1" xmlns="http://www.w3.org/2000/svg" xmlns:xlink="http://www.w3.org/1999/xlink" x="0px" y="0px"
	 viewBox="0 0 144 54.5" style="enable-background:new 0 0 144 54.5;" xml:space="preserve">
<style type="text/css">
	.st0{fill:#C0AD76;}
	.st1{fill:none;stroke:#C0AD76;stroke-miterlimit:10;}
</style>
<g>
	<path class="st0" d="M49.4,29c0.5,0.5,0.7,1.1,0.7,2v3.8h-1v-3.6c0-0.6-0.2-1.1-0.5-1.5c-0.3-0.3-0.8-0.5-1.3-0.5s-1,0.2-1.3,0.5
		c-0.3,0.3-0.5,0.9-0.5,1.5v3.5h-1.1v-6.4h1.1v0.9c0.2-0.3,0.5-0.6,0.9-0.8s0.8-0.3,1.2-0.3C48.2,28.3,48.9,28.6,49.4,29L49.4,29z"
		/>
	<path class="st0" d="M56.8,29c0.5,0.5,0.7,1.1,0.7,2v3.8h-1v-3.6c0-0.6-0.2-1.1-0.5-1.5c-0.3-0.3-0.8-0.5-1.3-0.5
		c-0.6,0-1,0.2-1.3,0.5c-0.3,0.3-0.5,0.9-0.5,1.5v3.5h-1.1v-6.4h1.1v0.9c0.2-0.3,0.5-0.6,0.9-0.8s0.8-0.3,1.2-0.3
		C55.7,28.3,56.3,28.6,56.8,29L56.8,29z"/>
	<path class="st0" d="M65.1,32.1H60c0,0.6,0.3,1.1,0.6,1.5s0.9,0.5,1.4,0.5c0.5,0,0.8-0.1,1.1-0.3c0.3-0.2,0.5-0.5,0.6-0.9H65
		c-0.2,0.6-0.5,1.1-1,1.5C63.4,34.8,62.8,35,62,35c-0.6,0-1.1-0.1-1.6-0.4c-0.5-0.3-0.9-0.7-1.1-1.2c-0.3-0.5-0.4-1.1-0.4-1.7
		c0-0.7,0.1-1.2,0.4-1.7c0.3-0.5,0.6-0.9,1.1-1.1c0.5-0.3,1-0.4,1.6-0.4s1.1,0.1,1.6,0.4c0.5,0.3,0.8,0.6,1.1,1.1
		c0.3,0.5,0.4,1,0.4,1.6C65.1,31.6,65.1,31.8,65.1,32.1L65.1,32.1z M63.7,30.1c-0.2-0.3-0.4-0.5-0.7-0.7c-0.3-0.2-0.6-0.2-1-0.2
		c-0.5,0-1,0.2-1.4,0.5c-0.4,0.3-0.6,0.8-0.6,1.4h4C64,30.8,63.9,30.4,63.7,30.1z"/>
	<path class="st0" d="M74.5,27.2c0.7,0.3,1.1,0.8,1.5,1.4c0.3,0.6,0.5,1.3,0.5,2.2s-0.2,1.6-0.5,2.2c-0.3,0.6-0.8,1.1-1.5,1.4
		c-0.7,0.3-1.4,0.5-2.3,0.5h-2.5v-8.1h2.5C73,26.7,73.8,26.9,74.5,27.2z M74.6,33.1c0.6-0.6,0.8-1.3,0.8-2.3c0-1-0.3-1.8-0.8-2.4
		c-0.6-0.6-1.4-0.9-2.4-0.9h-1.5V34h1.5C73.2,34,74,33.7,74.6,33.1z"/>
	<path class="st0" d="M77.9,29.9c0.3-0.5,0.6-0.9,1.1-1.1c0.5-0.3,1-0.4,1.5-0.4s1,0.1,1.5,0.4c0.4,0.2,0.7,0.5,0.9,0.9v-1.2h1.1
		v6.4h-1.1v-1.2c-0.2,0.4-0.5,0.7-0.9,0.9C81.5,34.8,81,35,80.5,35c-0.6,0-1.1-0.1-1.5-0.4s-0.8-0.7-1.1-1.2
		c-0.3-0.5-0.4-1.1-0.4-1.7S77.6,30.4,77.9,29.9L77.9,29.9z M82.6,30.4c-0.2-0.4-0.5-0.6-0.8-0.8c-0.3-0.2-0.7-0.3-1.1-0.3
		s-0.8,0.1-1.1,0.3c-0.3,0.2-0.6,0.5-0.8,0.8c-0.2,0.4-0.3,0.8-0.3,1.3c0,0.5,0.1,0.9,0.3,1.3c0.2,0.4,0.5,0.6,0.8,0.8
		s0.7,0.3,1.1,0.3s0.8-0.1,1.1-0.3c0.3-0.2,0.6-0.5,0.8-0.8c0.2-0.4,0.3-0.8,0.3-1.3C82.9,31.2,82.8,30.7,82.6,30.4z"/>
	<path class="st0" d="M86.8,26.2v8.6h-1.1v-8.6H86.8z"/>
	<path class="st0" d="M88.6,29.9c0.3-0.5,0.6-0.9,1.1-1.1c0.5-0.3,1-0.4,1.6-0.4c0.8,0,1.4,0.2,1.9,0.6c0.5,0.4,0.8,0.9,1,1.6h-1.1
		c-0.1-0.4-0.3-0.7-0.6-0.9c-0.3-0.2-0.7-0.3-1.2-0.3c-0.6,0-1.1,0.2-1.5,0.6c-0.4,0.4-0.6,1-0.6,1.8c0,0.8,0.2,1.4,0.6,1.8
		c0.4,0.4,0.9,0.6,1.5,0.6c0.5,0,0.9-0.1,1.2-0.3s0.5-0.5,0.6-0.9h1.1c-0.2,0.7-0.5,1.2-1,1.6c-0.5,0.4-1.2,0.6-1.9,0.6
		c-0.6,0-1.1-0.1-1.6-0.4c-0.5-0.3-0.8-0.7-1.1-1.2c-0.3-0.5-0.4-1.1-0.4-1.7C88.2,31,88.3,30.4,88.6,29.9L88.6,29.9z"/>
	<path class="st0" d="M100.2,28.7c0.4,0.2,0.7,0.5,0.9,0.9c0.2,0.4,0.3,0.9,0.3,1.5v3.8h-1v-3.6c0-0.6-0.2-1.1-0.5-1.5
		c-0.3-0.3-0.8-0.5-1.3-0.5s-1,0.2-1.3,0.5c-0.3,0.3-0.5,0.9-0.5,1.5v3.5h-1.1v-8.6h1.1v3.1c0.2-0.3,0.5-0.6,0.9-0.8
		c0.4-0.2,0.8-0.3,1.2-0.3C99.3,28.3,99.8,28.4,100.2,28.7L100.2,28.7z"/>
	<path class="st0" d="M104.3,34.5c-0.5-0.3-0.9-0.7-1.1-1.2c-0.3-0.5-0.4-1.1-0.4-1.7c0-0.7,0.1-1.2,0.4-1.7
		c0.3-0.5,0.7-0.9,1.2-1.2c0.5-0.3,1-0.4,1.6-0.4c0.6,0,1.2,0.1,1.6,0.4c0.5,0.3,0.9,0.7,1.2,1.1c0.3,0.5,0.4,1.1,0.4,1.7
		s-0.1,1.2-0.4,1.7c-0.3,0.5-0.7,0.9-1.2,1.2s-1,0.4-1.7,0.4C105.3,35,104.8,34.8,104.3,34.5L104.3,34.5z M107,33.8
		c0.3-0.2,0.6-0.4,0.8-0.8c0.2-0.4,0.3-0.8,0.3-1.3c0-0.5-0.1-0.9-0.3-1.3s-0.5-0.6-0.8-0.8s-0.7-0.3-1.1-0.3s-0.7,0.1-1.1,0.3
		c-0.3,0.2-0.6,0.4-0.8,0.8c-0.2,0.4-0.3,0.8-0.3,1.3c0,0.5,0.1,1,0.3,1.3c0.2,0.4,0.4,0.6,0.8,0.8s0.7,0.3,1,0.3
		C106.3,34,106.7,33.9,107,33.8L107,33.8z"/>
	<path class="st0" d="M119.1,28.5l-2,6.4H116l-1.5-5.1l-1.5,5.1h-1.1l-2-6.4h1.1l1.5,5.4l1.6-5.4h1.1l1.6,5.4l1.4-5.4H119.1z"/>
</g>
<circle class="st1" cx="23.2" cy="30" r="17.2"/>
<line class="st1" x1="23.2" y1="37.3" x2="132.2" y2="37.3"/>
<path class="st0" d="M40.9,32.3h-4.7l-0.9,2.6h-1.5l3.9-11.4h1.6l3.9,11.4h-1.5L40.9,32.3L40.9,32.3z M40.5,31.1l-2-5.8l-2,5.8H40.5
	L40.5,31.1z"/>
</svg>
